<?xml version="1.0" encoding="iso-8859-1"?>
<!-- Generator: Adobe Illustrator 17.1.0, SVG Export Plug-In . SVG Version: 6.00 Build 0)  -->
<!DOCTYPE svg PUBLIC "-//W3C//DTD SVG 1.1//EN" "http://www.w3.org/Graphics/SVG/1.1/DTD/svg11.dtd">
<svg version="1.1" id="Capa_1" xmlns="http://www.w3.org/2000/svg" xmlns:xlink="http://www.w3.org/1999/xlink" x="0px" y="0px"
	 viewBox="0 0 489.708 489.708" style="enable-background:new 0 0 489.708 489.708;" xml:space="preserve">
<path d="M95.246,418.534h294.476c2.762,0,5,2.239,5,5s-2.238,5-5,5H95.246c-2.762,0-5-2.239-5-5S92.484,418.534,95.246,418.534z
	 M389.721,437.03H95.246c-2.762,0-5,2.239-5,5s2.238,5,5,5h294.476c2.762,0,5-2.239,5-5S392.483,437.03,389.721,437.03z M443.354,5
	v479.708c0,2.761-2.238,5-5,5H100.969c-25.194,0-54.615-15.139-54.615-57.804V45.153C46.354,20.256,66.61,0,91.507,0h346.847
	C441.116,0,443.354,2.239,443.354,5z M102.733,406.942c-13.764,0-24.961,11.198-24.961,24.961s11.197,24.961,24.961,24.961h330.621
	v-49.922h-42.208H102.733z M433.354,479.708v-12.843H102.733c-19.277,0-34.961-15.684-34.961-34.961
	c0-19.278,15.684-34.961,34.961-34.961h288.413h42.208v-10.396H94.287c-5.577,0-12.193,2.511-18.629,7.071
	c-0.878,0.622-1.887,0.921-2.887,0.921c-1.566,0-3.109-0.734-4.084-2.11c-1.596-2.253-1.063-5.374,1.189-6.97
	c8.111-5.747,16.78-8.912,24.41-8.912h1.683v-15.384c0-2.761,2.238-5,5-5s5,2.239,5,5v15.384h327.385V10H105.969v312.764
	c0,2.761-2.238,5-5,5s-5-2.239-5-5V10h-4.462c-19.384,0-35.153,15.77-35.153,35.153v386.75c0,45.5,37.165,47.804,44.615,47.804
	H433.354z M161.581,252.758V150.462c0-2.761,2.238-5,5-5H216.6l84.278-42.145c1.551-0.774,3.39-0.692,4.865,0.219
	c1.474,0.911,2.371,2.521,2.371,4.253v67.545c14.181,0.392,25.6,12.043,25.6,26.318c0,14.275-11.418,25.925-25.6,26.317v67.557
	c0,1.734-0.898,3.344-2.373,4.254c-0.803,0.496-1.714,0.746-2.627,0.746c-0.766,0-1.533-0.176-2.24-0.53l-84.277-42.238h-50.017
	C163.819,257.758,161.581,255.52,161.581,252.758z M308.115,185.353v32.598c8.665-0.389,15.6-7.539,15.6-16.299
	S316.78,185.742,308.115,185.353z M298.115,115.88l-75.334,37.672v96.119l75.334,37.756V115.88z M171.581,247.758h41.2v-92.296
	h-41.2V247.758z M340.781,201.663c0,2.761,2.238,5,5,5h25.601c2.762,0,5-2.239,5-5s-2.238-5-5-5h-25.601
	C343.019,196.663,340.781,198.902,340.781,201.663z M337.252,172.529c0.953,0,1.917-0.272,2.77-0.841l25.601-17.077
	c2.298-1.533,2.918-4.637,1.385-6.934c-1.531-2.297-4.635-2.918-6.934-1.385l-25.601,17.077c-2.298,1.533-2.917,4.637-1.385,6.934
	C334.051,171.748,335.637,172.529,337.252,172.529z M365.622,248.704l-25.601-17.067c-2.299-1.532-5.403-0.911-6.934,1.387
	c-1.532,2.297-0.911,5.402,1.387,6.934l25.601,17.067c0.853,0.568,1.815,0.84,2.769,0.84c1.616,0,3.202-0.782,4.165-2.227
	C368.541,253.34,367.919,250.236,365.622,248.704z"/>
<g>
</g>
<g>
</g>
<g>
</g>
<g>
</g>
<g>
</g>
<g>
</g>
<g>
</g>
<g>
</g>
<g>
</g>
<g>
</g>
<g>
</g>
<g>
</g>
<g>
</g>
<g>
</g>
<g>
</g>
</svg>
